<?xml version="1.0" encoding="UTF-8"?>
<svg version="1.1" xmlns="http://www.w3.org/2000/svg" width="1024" height="1024">
<path d="M0 0 C337.92 0 675.84 0 1024 0 C1024 337.92 1024 675.84 1024 1024 C686.08 1024 348.16 1024 0 1024 C0 686.08 0 348.16 0 0 Z " fill="#E4E4E4" transform="translate(0,0)"/>
<path d="M0 0 C1.64756538 -0.00786278 1.64756538 -0.00786278 3.32841492 -0.0158844 C5.64561114 -0.02228938 7.96283994 -0.02098742 10.2800293 -0.01245117 C13.80251821 -0.00395857 17.32337484 -0.03269826 20.84570312 -0.06445312 C23.10546827 -0.0660659 25.36523625 -0.06548614 27.625 -0.0625 C28.66699051 -0.07373398 29.70898102 -0.08496796 30.782547 -0.09654236 C38.6038973 -0.02300219 45.65177538 1.38957337 51.9140625 6.328125 C56.12112829 11.58428099 59.04764833 15.91991773 59.94921875 22.74609375 C59.27977426 28.38855443 57.92535566 34.02544238 53.79296875 38.1484375 C49.10852263 41.57245002 45.50259603 42.56289819 39.82421875 42.49609375 C38.83035156 42.48707031 37.83648438 42.47804687 36.8125 42.46875 C35.67361328 42.45134766 35.67361328 42.45134766 34.51171875 42.43359375 C34.51171875 45.73359375 34.51171875 49.03359375 34.51171875 52.43359375 C36.77015625 52.55734375 36.77015625 52.55734375 39.07421875 52.68359375 C56.57596893 54.3397696 72.45846669 61.75671922 87.51171875 70.43359375 C88.24648438 70.84996094 88.98125 71.26632813 89.73828125 71.6953125 C91.3334877 72.60095759 92.92341049 73.51590453 94.51171875 74.43359375 C97.44519954 71.12853872 100.20064717 67.92376716 102.57421875 64.18359375 C104.7096385 61.1526754 106.10226252 59.86080798 109.51171875 58.43359375 C114.27422563 57.82745651 116.90310772 58.3430032 120.81469727 61.08520508 C124.21736088 63.78883206 127.22121563 66.89884254 130.26171875 69.99609375 C130.93332031 70.66833984 131.60492187 71.34058594 132.296875 72.03320312 C139.81164334 79.61573991 139.81164334 79.61573991 140.07421875 85.62109375 C139.98501072 91.24863386 138.3158024 93.82106628 134.40625 97.72265625 C133.46845703 98.56957031 133.46845703 98.56957031 132.51171875 99.43359375 C130.72149479 101.05476508 129.12266594 102.62127816 127.51171875 104.43359375 C127.88752663 107.3499963 128.99334451 109.4854326 130.55078125 111.9453125 C130.96303955 112.61159668 131.37529785 113.27788086 131.80004883 113.96435547 C132.2411499 114.6760791 132.68225098 115.38780273 133.13671875 116.12109375 C141.71969811 130.40918486 146.86956849 145.20946986 150.51171875 161.43359375 C150.75921875 162.51640625 151.00671875 163.59921875 151.26171875 164.71484375 C157.7698058 199.06308093 147.98480813 236.09781329 128.71972656 264.69140625 C125.87000126 268.80127685 122.78627639 272.65723749 119.51171875 276.43359375 C118.80402344 277.26246094 118.09632813 278.09132813 117.3671875 278.9453125 C106.67205187 291.17635202 94.24028972 301.43074559 79.51171875 308.43359375 C83.39172083 315.51881495 89.86427561 319.94550115 97.51171875 322.43359375 C100.52434233 322.78933678 103.53313903 322.86147188 106.56420898 322.93603516 C107.92215073 322.9803643 107.92215073 322.9803643 109.30752563 323.02558899 C112.3115848 323.12121198 115.31584547 323.20343138 118.3203125 323.28515625 C120.44175625 323.34891639 122.56318044 323.41333066 124.68458557 323.47836304 C129.15586827 323.61343568 133.62727462 323.74218011 138.09887695 323.86621094 C143.70948799 324.02208341 149.31961727 324.19071903 154.92972374 324.36369705 C175.26005971 324.98779955 195.59688432 325.5604158 215.93733406 325.68940353 C217.57408845 325.70101624 219.210817 325.71740025 220.84747124 325.73891068 C223.0731084 325.76611679 225.29789868 325.77358396 227.52368164 325.77490234 C228.76130753 325.78186127 229.99893341 325.78882019 231.27406311 325.79598999 C234.81672647 325.39945372 236.67922591 324.55742543 239.51171875 322.43359375 C242.39280901 317.98099971 241.42423622 313.40544323 240.51171875 308.43359375 C239.56918474 305.23854006 238.35820258 302.19295401 237.07421875 299.12109375 C236.72004883 298.26008057 236.36587891 297.39906738 236.00097656 296.51196289 C224.16690597 268.26363611 207.92684207 242.41094514 186.51171875 220.43359375 C185.9801416 219.88687012 185.44856445 219.34014648 184.90087891 218.77685547 C183.21550126 217.05136143 181.5223673 215.33401737 179.82421875 213.62109375 C179.31375 213.10579102 178.80328125 212.59048828 178.27734375 212.05957031 C177.52130859 211.30691895 177.52130859 211.30691895 176.75 210.5390625 C176.24130371 210.0229541 175.73260742 209.5068457 175.20849609 208.97509766 C173.51802311 207.35725726 173.51802311 207.35725726 171.38134766 206.04443359 C167.61512516 203.43743705 165.78863493 201.65329053 164.75317383 197.0925293 C164.47256949 193.6740439 164.31164174 190.31212239 164.28222656 186.88525391 C164.2476622 183.17452277 164.08653022 179.46915195 163.93359375 175.76171875 C163.90632202 175.03577515 163.87905029 174.30983154 163.85095215 173.56188965 C163.51250769 165.6118428 162.02544175 158.0991849 160.01953125 150.42578125 C159.09105039 146.7832794 158.31086468 143.10626443 157.51171875 139.43359375 C187.9774158 155.01480264 216.75374318 179.31666088 237.51171875 206.43359375 C238.49997348 207.67163463 239.48966847 208.90852662 240.48046875 210.14453125 C285.92109462 267.43416224 305.62331896 341.3857005 297.82373047 413.73828125 C294.11673008 445.76119537 284.75326016 477.53830162 270.51171875 506.43359375 C269.89756104 507.69647217 269.89756104 507.69647217 269.27099609 508.98486328 C258.39989113 531.16291362 244.63438328 551.84880044 227.8046875 569.95703125 C225.86068972 572.05668132 223.98910455 574.19128866 222.13671875 576.37109375 C214.82896967 584.74241194 206.90585836 592.39977997 198.19921875 599.30078125 C196.44563605 600.69243264 194.71483773 602.11343287 193.01171875 603.56640625 C137.34305539 650.91871442 61.34505996 670.07419263 -10.42578125 664.68359375 C-72.50615499 659.26423177 -130.09622935 633.63028345 -176.03515625 591.6640625 C-177.63334683 590.21093062 -179.24737381 588.77496932 -180.87890625 587.359375 C-192.78810226 576.96764107 -203.07478061 565.09734769 -212.48828125 552.43359375 C-213.21313721 551.46147949 -213.21313721 551.46147949 -213.95263672 550.46972656 C-244.16215561 509.63329914 -263.69018624 460.03594215 -268.48828125 409.43359375 C-268.58181885 408.50466309 -268.67535645 407.57573242 -268.77172852 406.61865234 C-273.1906372 359.35554207 -264.55356858 311.73744932 -245.48828125 268.43359375 C-245.16778809 267.69093262 -244.84729492 266.94827148 -244.51708984 266.18310547 C-227.44312136 226.82539599 -198.53232373 189.62514176 -164.48828125 163.43359375 C-163.05548828 162.27537109 -163.05548828 162.27537109 -161.59375 161.09375 C-155.14030418 155.95534597 -148.45597965 151.35156664 -141.48828125 146.93359375 C-140.67488281 146.41692139 -139.86148438 145.90024902 -139.0234375 145.36791992 C-135.27545597 143.02815982 -131.69876104 140.859724 -127.48828125 139.43359375 C-127.81441406 140.48933594 -128.14054688 141.54507813 -128.4765625 142.6328125 C-130.94456565 150.88248154 -132.9860989 159.09575159 -134.23828125 167.62109375 C-134.3657373 168.48484619 -134.49319336 169.34859863 -134.62451172 170.23852539 C-135.2560856 175.02438381 -135.53879421 179.6637551 -135.46875 184.4921875 C-135.29228483 200.58658351 -135.29228483 200.58658351 -139.00390625 205.15234375 C-141.8714045 208.01124449 -145.1069724 210.21266026 -148.48828125 212.43359375 C-152.60907536 215.62396605 -156.10593083 219.07925078 -159.46484375 223.046875 C-160.91249204 224.75442926 -162.3901027 226.43675995 -163.88671875 228.1015625 C-182.80071758 249.35324657 -197.08509971 275.08132321 -207.48828125 301.43359375 C-207.783396 302.15893311 -208.07851074 302.88427246 -208.38256836 303.6315918 C-210.53494989 309.07022715 -211.4131546 313.64567666 -210.48828125 319.43359375 C-208.69181271 322.3678257 -207.54417415 323.9056473 -204.48828125 325.43359375 C-201.82574919 325.54761466 -199.19078632 325.59749579 -196.52734375 325.6015625 C-195.67052002 325.60579727 -194.81369629 325.61003204 -193.9309082 325.61439514 C-190.99165345 325.6245749 -188.0525512 325.62424166 -185.11328125 325.62109375 C-183.57809845 325.62018738 -183.57809845 325.62018738 -182.01190186 325.6192627 C-160.27884448 325.58541508 -138.54770209 325.23567337 -116.81951904 324.79580688 C-113.02310673 324.71933049 -109.22668912 324.6513759 -105.42999268 324.59066772 C-100.88209225 324.51714744 -96.33495833 324.42437793 -91.78771973 324.31765556 C-90.0970728 324.28089926 -88.40627502 324.25044016 -86.71539307 324.22685432 C-74.84385795 324.05464874 -64.13451574 323.26244016 -54.828125 315.09375 C-53.16147125 313.02865425 -52.3684721 310.92255446 -51.48828125 308.43359375 C-52.23851562 308.02109375 -52.98875 307.60859375 -53.76171875 307.18359375 C-64.89403571 300.9023872 -74.1416321 293.09672944 -83.48828125 284.43359375 C-84.08125 283.90636719 -84.67421875 283.37914062 -85.28515625 282.8359375 C-107.13349082 262.49617841 -121.58385055 229.10853575 -123.39453125 199.50390625 C-123.4409375 197.98410156 -123.4409375 197.98410156 -123.48828125 196.43359375 C-123.5140625 195.74104492 -123.53984375 195.04849609 -123.56640625 194.33496094 C-124.45292325 167.70620666 -118.34933498 143.76911391 -105.48828125 120.43359375 C-104.99714844 119.52609375 -104.50601563 118.61859375 -104 117.68359375 C-85.73044725 85.57035174 -54.54656046 63.82731643 -19.42578125 54.05859375 C-14.63336243 52.75590311 -10.45647572 52.26904209 -5.48828125 52.43359375 C-5.48828125 49.13359375 -5.48828125 45.83359375 -5.48828125 42.43359375 C-6.28492188 42.48 -7.0815625 42.52640625 -7.90234375 42.57421875 C-18.62662117 42.9395226 -18.62662117 42.9395226 -23.48828125 38.43359375 C-29.16837576 32.48966971 -29.90375784 27.79465023 -29.83203125 19.734375 C-29.19069986 13.57613612 -26.080996 9.69247896 -21.61328125 5.62109375 C-14.36403651 0.54662243 -8.67931576 -0.02431087 0 0 Z " fill="#013549" transform="translate(497.48828125,70.56640625)"/>
<path d="M0 0 C22.64749685 19.73077377 36.36375754 46.49867085 38.71533203 76.49658203 C40.34952605 105.97361298 30.32546864 136.02704017 10.87353516 158.26025391 C-7.77000435 178.73892873 -32.64285938 192.48270693 -60.453125 195.34765625 C-93.29250892 196.77953993 -123.19936555 190.24062794 -148.18457031 167.79199219 C-170.2915681 147.35705258 -184.15894265 119.6612973 -185.7734375 89.375 C-186.68966711 60.94001314 -177.29784315 35.46637158 -159.453125 13.34765625 C-158.53273438 12.17783203 -158.53273438 12.17783203 -157.59375 10.984375 C-140.52400998 -9.55037635 -113.36905564 -22.79652165 -87.25390625 -26.3359375 C-55.01081764 -29.02010007 -24.89735957 -21.06216024 0 0 Z " fill="#E4E4E5" transform="translate(585.453125,173.65234375)"/>
<path d="M0 0 C1.71179679 0.2401278 3.4236928 0.47954927 5.13568115 0.7183075 C8.70664183 1.21815688 12.27671834 1.72376834 15.84619141 2.23413086 C20.3707489 2.88097418 24.89667507 3.5175097 29.42323685 4.15015888 C32.95513672 4.64425521 36.48653985 5.14182644 40.01778412 5.64058495 C41.68388896 5.87590519 43.3500697 6.11068874 45.01633453 6.34487343 C53.46019681 7.53509662 61.89011342 8.79045594 70.29589844 10.22729492 C71.32372625 10.39798603 71.32372625 10.39798603 72.37231827 10.57212543 C86.22910905 13.00484503 96.64806753 19.74452567 105.140625 30.83203125 C108.68237595 36.15917304 111.30139128 41.93500412 114.046875 47.69921875 C120.38485467 60.27767071 128.51916167 70.84709554 139.671875 79.57421875 C149.55144984 87.87214472 153.73826398 100.47615858 155.5012207 112.77807617 C155.69409526 114.09605965 155.69409526 114.09605965 155.89086628 115.44066906 C157.2605881 124.94156214 158.41094352 134.46660096 159.52734375 144 C159.74710022 145.86038553 159.96701845 147.72075195 160.18708801 149.58110046 C160.64205535 153.43362328 161.09469084 157.28641083 161.5456543 161.1394043 C162.12234521 166.06442886 162.7056873 170.98864054 163.29079723 175.91267109 C163.7440568 179.73423401 164.19351944 183.5562363 164.6418705 187.37837791 C164.85552345 189.19532068 165.07041747 191.01211799 165.28661156 192.82876015 C165.58715711 195.3584624 165.88248904 197.88872211 166.17651367 200.41918945 C166.26530792 201.1574144 166.35410217 201.89563934 166.44558716 202.65623474 C167.4975608 211.82962547 167.22229241 217.94284906 162.046875 225.69921875 C156.13543347 230.64552697 150.51027551 231.30795589 143.046875 230.69921875 C139.14342174 229.96910725 135.35954739 228.92874313 131.546875 227.82421875 C130.46390137 227.51395752 129.38092773 227.20369629 128.26513672 226.8840332 C86.09100766 214.39983346 44.11672309 190.2199015 16.046875 155.69921875 C15.07497714 154.55013937 14.10223309 153.40177547 13.12890625 152.25390625 C-10.78288986 123.77320447 -27.14431766 90.45403803 -36.265625 54.51171875 C-36.43674805 53.84679413 -36.60787109 53.18186951 -36.78417969 52.49679565 C-45.91656233 16.72737695 -45.91656233 16.72737695 -40.390625 5.69921875 C-30.08963184 -6.97892667 -14.47632134 -2.08437679 0 0 Z " fill="#E4E4E4" transform="translate(317.953125,453.30078125)"/>
<path d="M0 0 C3.6859827 3.6686369 6.7903047 6.84606019 7.15039062 12.26196289 C7.2738541 68.0623078 -21.00231442 123.41085291 -59 163 C-59.53496094 163.56219238 -60.06992187 164.12438477 -60.62109375 164.70361328 C-68.33047312 172.76685851 -76.31493316 180.08124642 -85.28076172 186.72509766 C-86.94971322 187.9627098 -88.60177553 189.22053819 -90.25390625 190.48046875 C-114.53500456 208.69671721 -142.89854368 221.26024547 -172.3125 228.4375 C-172.97531982 228.60161377 -173.63813965 228.76572754 -174.32104492 228.93481445 C-180.00931112 230.22921554 -185.53137017 230.83933414 -191.125 228.9375 C-195.27922393 226.13791431 -198.74388159 222.51223683 -201 218 C-201.78548998 203.61465419 -200.15145243 189.55549334 -198.3125 175.3125 C-198.03769133 173.12235385 -197.76386139 170.93208469 -197.4909668 168.74169922 C-196.93712287 164.30802221 -196.37698874 159.87520467 -195.8125 155.44287109 C-195.04436746 149.388386 -194.31426564 143.32983812 -193.59375 137.26953125 C-193.2697423 134.57260203 -192.94477427 131.87579104 -192.61923218 129.17904663 C-192.41771678 127.50110163 -192.21829077 125.82290414 -192.02114868 124.1444397 C-189.42220506 102.10529715 -184.5296002 85.49706452 -166.96484375 70.71484375 C-157.2120744 62.20298342 -151.48051553 51.25908262 -146 39.75 C-139.4754244 26.48866748 -129.69513457 17.40068172 -116 12 C-113.62099419 11.42919633 -111.22257606 10.93563434 -108.81396484 10.5065918 C-108.12602026 10.38352252 -107.43807568 10.26045324 -106.72928429 10.13365459 C-97.98631156 8.59950428 -89.20014274 7.33981646 -80.4140625 6.08203125 C-78.57757193 5.81737261 -76.74109557 5.55261536 -74.90463257 5.2877655 C-71.08797495 4.73829029 -67.27092613 4.19163208 -63.45361328 3.64672852 C-58.58435681 2.95119343 -53.71655466 2.2459821 -48.84903908 1.53838062 C-45.06973236 0.99051332 -41.28952669 0.4490602 -37.50904465 -0.09063148 C-35.713938 -0.34791239 -33.91915132 -0.60743695 -32.1247139 -0.86934471 C-6.52651163 -4.5982241 -6.52651163 -4.5982241 0 0 Z " fill="#E4E4E4" transform="translate(742,454)"/>
<path d="M0 0 C11.16452109 9.44690246 19.52150938 22.64509867 21.75 37.25 C23.08121755 53.83269769 20.14511703 69.4947463 9.6796875 82.90234375 C-0.32325488 94.49111846 -13.33578321 103.78587793 -28.92456055 105.55322266 C-31.6655244 105.68593412 -34.38106157 105.71783572 -37.125 105.6875 C-38.09026611 105.67992676 -39.05553223 105.67235352 -40.05004883 105.66455078 C-47.38747891 105.49524924 -53.58953786 104.46955874 -60.25 101.25 C-61.16523438 100.8375 -62.08046875 100.425 -63.0234375 100 C-77.97623602 92.62831222 -87.2608983 80.49092539 -93.25 65.22265625 C-98.24807565 50.36509542 -96.88393603 35.48975973 -90.96484375 21.1328125 C-87.45246683 14.22546402 -82.69045172 8.71859198 -77.25 3.25 C-76.64671875 2.61191406 -76.0434375 1.97382813 -75.421875 1.31640625 C-54.79847097 -18.81382942 -21.77874119 -16.48390962 0 0 Z " fill="#E4E4E5" transform="translate(549.25,411.75)"/>
<path d="M0 0 C60.45076816 0 60.45076816 0 75.875 14.0625 C85.20973529 24.10206797 89.51213829 36.97867725 89.24609375 50.5 C88.33167637 63.5050472 84.3813332 75.6186668 75 85 C52.86920535 102.97384753 29.02791144 98 0 98 C0 65.66 0 33.32 0 0 Z " fill="#023448" transform="translate(243,761)"/>
<path d="M0 0 C8.353125 -0.0825 16.70625 -0.165 25.3125 -0.25 C27.92712158 -0.28641602 30.54174316 -0.32283203 33.2355957 -0.36035156 C35.34064924 -0.37204938 37.44571192 -0.3822386 39.55078125 -0.390625 C40.61727905 -0.41108887 41.68377686 -0.43155273 42.78259277 -0.45263672 C54.19836593 -0.45787031 62.66709968 2.69026509 70.8984375 10.62109375 C78.3059214 19.00614523 78.5379973 28.46204555 78.140625 39.09423828 C77.53557617 47.29391048 73.47654003 53.97048778 67.375 59.3125 C65.59321822 60.79472458 64.07503507 61.96248246 62 63 C63.502423 67.15909923 65.58605303 70.80569613 67.9140625 74.54296875 C68.68229789 75.79361597 69.45052687 77.04426713 70.21875 78.29492188 C71.42687977 80.25097675 72.63651138 82.20609442 73.84667969 84.16088867 C75.01861098 86.05686887 76.18526002 87.95602268 77.3515625 89.85546875 C77.71714264 90.44192673 78.08272278 91.0283847 78.4593811 91.63261414 C81 95.77411796 81 95.77411796 81 98 C73.11894073 99.37790864 64.71167904 100.63269572 57 98 C51.18197572 92.93481052 48.28648273 85.63875872 45.21020508 78.71875 C42.77680017 72.92693195 42.77680017 72.92693195 39 68 C36.02431547 66.93749073 33.32203981 66.92321862 30.1875 67 C27.485625 67 24.78375 67 22 67 C22 77.23 22 87.46 22 98 C14.74 98 7.48 98 0 98 C0 65.66 0 33.32 0 0 Z " fill="#023549" transform="translate(693,761)"/>
<path d="M0 0 C8.188125 -0.0825 16.37625 -0.165 24.8125 -0.25 C28.65612183 -0.30462402 28.65612183 -0.30462402 32.57739258 -0.36035156 C34.64143032 -0.37204986 36.70547739 -0.38223897 38.76953125 -0.390625 C39.81443726 -0.41108887 40.85934326 -0.43155273 41.93591309 -0.45263672 C52.09649087 -0.45738632 60.81409764 1.93979406 68.28125 9.0703125 C74.4665986 16.01477206 77.38213656 22.92996577 77.3125 32.25 C77.30831055 33.00708252 77.30412109 33.76416504 77.29980469 34.54418945 C77.13166553 42.86797204 75.28031846 49.39960193 70 56 C67.21760438 58.65762452 64.45734706 61.27132647 61 63 C62.2664703 67.19872062 63.83562976 70.68771125 66.15234375 74.40625 C67.06983398 75.89318359 67.06983398 75.89318359 68.00585938 77.41015625 C68.64330078 78.42980469 69.28074219 79.44945312 69.9375 80.5 C71.19880406 82.52989117 72.45798587 84.56110287 73.71484375 86.59375 C74.27292725 87.48771484 74.83101074 88.38167969 75.40600586 89.30273438 C77.08284894 92.14019224 78.55890952 95.03683753 80 98 C76.12629549 98.26246434 72.25487619 98.42153564 68.375 98.5625 C67.28058594 98.63791016 66.18617188 98.71332031 65.05859375 98.79101562 C57.17071589 99.00613957 57.17071589 99.00613957 54.07226562 96.34326172 C52.4293123 93.97134036 51.19956808 91.6239654 50 89 C49.57702637 88.11127197 49.15405273 87.22254395 48.71826172 86.30688477 C47.84991239 84.46863339 46.98322796 82.62959468 46.11816406 80.78979492 C42.39606149 72.52793357 42.39606149 72.52793357 35.69140625 66.94677734 C30.15111118 65.76191566 25.82932433 66.42589988 20 67 C20 77.23 20 87.46 20 98 C13.4 98 6.8 98 0 98 C0 65.66 0 33.32 0 0 Z " fill="#013347" transform="translate(352,761)"/>
<path d="M0 0 C1.26011829 1.06870792 2.48896023 2.17516226 3.6875 3.3125 C4.37585938 3.94929688 5.06421875 4.58609375 5.7734375 5.2421875 C13.55214957 13.13656815 17.12252711 22.43580883 17.25 33.4375 C17.03322749 44.99778564 12.72358767 54.86805122 4.83984375 63.28515625 C-4.67595123 72.19557262 -15.06624595 73.8958953 -27.6875 73.64453125 C-37.65787543 73.15128996 -45.06879777 68.60284293 -52.12109375 61.765625 C-60.21717308 52.70263424 -63.97653988 42.36522896 -63.58984375 30.25390625 C-62.57207168 19.45978842 -57.43061112 9.88554769 -49.5625 2.4375 C-35.61187772 -8.87528532 -14.96510958 -10.51364842 0 0 Z " fill="#013549" transform="translate(535.3125,424.6875)"/>
<path d="M0 0 C8.84973767 6.17716732 13.61504654 13.84513961 17 24 C18.26590888 36.43314815 17.46044889 47.32910887 10.05078125 57.73828125 C3.45994767 65.7253776 -5.53173301 71.78187439 -16 73 C-28.25837897 74.10498064 -38.4540885 70.77469745 -48 63 C-54.82252618 56.52773744 -59.48176165 47.70664785 -60.3359375 38.30078125 C-60.45571947 26.07104208 -58.55258394 16.3014277 -50 7 C-36.85302081 -6.31063453 -16.42397943 -10.19914758 0 0 Z " fill="#033347" transform="translate(518,888)"/>
<path d="M0 0 C23.43 0 46.86 0 71 0 C71 6.27 71 12.54 71 19 C54.5 19 38 19 21 19 C21 25.93 21 32.86 21 40 C34.86 40 48.72 40 63 40 C63 45.94 63 51.88 63 58 C49.14 58 35.28 58 21 58 C21 64.93 21 71.86 21 79 C37.5 79 54 79 71 79 C71 85.27 71 91.54 71 98 C47.57 98 24.14 98 0 98 C0 65.66 0 33.32 0 0 Z " fill="#013548" transform="translate(602,761)"/>
<path d="M0 0 C0.66 -0.02191406 1.32 -0.04382813 2 -0.06640625 C5.12653954 0.91674388 6.19644157 2.89540559 8 5.5625 C8.51898193 8.32771301 8.51898193 8.32771301 8.54589844 11.36254883 C8.56561707 12.50335403 8.58533569 13.64415924 8.60565186 14.8195343 C8.60688049 16.04053329 8.60810913 17.26153229 8.609375 18.51953125 C8.62591125 19.77763107 8.64244751 21.0357309 8.65948486 22.33195496 C8.69978497 25.66446091 8.72313536 28.99620343 8.73822021 32.32885742 C8.75782599 35.73436968 8.79979186 39.13959957 8.83984375 42.54492188 C8.91379231 49.21737896 8.96539609 55.88972915 9 62.5625 C12.03739302 61.20495411 14.11935473 59.68477009 16.45166016 57.32202148 C17.10558746 56.66471542 17.75951477 56.00740936 18.43325806 55.33018494 C19.12817352 54.62180984 19.82308899 53.91343475 20.5390625 53.18359375 C21.26112885 52.45632584 21.98319519 51.72905792 22.72714233 50.97975159 C25.03122694 48.65786418 27.32851132 46.32939861 29.625 44 C31.92949133 41.66791428 34.23541392 39.33729055 36.54428101 37.00953674 C37.98049156 35.56104462 39.41402086 34.10988824 40.84463501 32.65586853 C41.492258 32.00171463 42.13988098 31.34756073 42.80712891 30.67358398 C43.37686432 30.09559555 43.94659973 29.51760712 44.53359985 28.92210388 C47.61519513 26.0649377 50.68981796 26.10402834 54.73046875 26.15625 C57.33325673 26.62215353 58.32396762 27.21742768 60.125 29.125 C62 32.5625 62 32.5625 62.25 35.9375 C58.96606817 45.46090232 48.64285322 53.10584715 41.61889648 60.12890625 C39.66947219 62.08054832 37.72822376 64.0400967 35.78710938 66 C34.54996751 67.24007071 33.31235465 68.47967177 32.07421875 69.71875 C31.49403488 70.30611938 30.91385101 70.89348877 30.31608582 71.49865723 C26.22886255 75.5625 26.22886255 75.5625 24 75.5625 C24.15726563 76.25988281 24.31453125 76.95726562 24.4765625 77.67578125 C25.99637734 86.05744666 25.94322998 93.85298753 21.609375 101.33984375 C16.79702496 107.9860262 11.08033016 111.99901146 3 113.5625 C-4.31262311 114.70831595 -9.94331685 112.70707326 -16 108.5625 C-21.70798711 103.44351719 -25.57601357 97.99845802 -26.3125 90.29296875 C-26.55248581 83.25088518 -26.55556076 77.19637169 -22 71.5625 C-17.65711022 66.95223082 -14.33552502 63.64414297 -8 62.5625 C-8.00888245 61.84475403 -8.01776489 61.12700806 -8.0269165 60.38751221 C-8.1071049 53.61942406 -8.16798592 46.85140703 -8.20724869 40.08296585 C-8.22811308 36.6032813 -8.25640821 33.12398967 -8.30175781 29.64453125 C-8.35358227 25.64319107 -8.37295453 21.64226281 -8.390625 17.640625 C-8.41127014 16.39259094 -8.43191528 15.14455688 -8.45318604 13.85870361 C-8.45348816 12.69780212 -8.45379028 11.53690063 -8.45410156 10.34082031 C-8.46298401 9.31933899 -8.47186646 8.29785767 -8.48101807 7.24542236 C-7.64953351 2.60774102 -4.71587568 -0.00921069 0 0 Z " fill="#023448" transform="translate(513,170.4375)"/>
<path d="M0 0 C7.59 0 15.18 0 23 0 C27.45890024 12.26197566 31.85289094 24.53914599 36.125 36.8671875 C36.48396362 37.90259674 36.84292725 38.93800598 37.21276855 40.00479126 C39.03882084 45.27463631 40.86059683 50.54592224 42.67773438 55.81884766 C43.35799766 57.7855078 44.03833303 59.75214302 44.71875 61.71875 C45.03505371 62.64058075 45.35135742 63.5624115 45.67724609 64.51217651 C45.96873535 65.35313873 46.26022461 66.19410095 46.56054688 67.06054688 C46.8154187 67.8001062 47.07029053 68.53966553 47.33288574 69.30163574 C47.87113245 71.00434322 47.87113245 71.00434322 49 72 C49.20996109 71.39295227 49.41992218 70.78590454 49.63624573 70.16046143 C51.85902821 63.73410123 54.08232988 57.30792081 56.3059082 50.88183594 C57.13123164 48.4964636 57.95643086 46.11104828 58.78149414 43.72558594 C63.82619661 29.14041577 68.89194059 14.56311166 74 0 C81.59 0 89.18 0 97 0 C91.49684181 15.84491409 85.80834969 31.6166764 80.0625 47.375 C78.76948325 50.92514412 77.47681049 54.47541336 76.18417358 58.0256958 C75.34181016 60.3383564 74.49890349 62.65081921 73.65542603 64.96307373 C71.63514617 70.5021086 69.62166949 76.04340222 67.62451172 81.59082031 C67.06877724 83.13088242 67.06877724 83.13088242 66.5018158 84.70205688 C65.80561265 86.63251474 65.1116244 88.56377327 64.42018127 90.49594116 C64.11450729 91.34242218 63.80883331 92.1889032 63.49389648 93.06103516 C63.22802231 93.80165192 62.96214813 94.54226868 62.68821716 95.30532837 C62 97 62 97 61 98 C59.07332493 98.08748207 57.14348139 98.10697334 55.21484375 98.09765625 C53.46010742 98.09282227 53.46010742 98.09282227 51.66992188 98.08789062 C50.43822266 98.07951172 49.20652344 98.07113281 47.9375 98.0625 C46.08415039 98.05573242 46.08415039 98.05573242 44.19335938 98.04882812 C41.12885883 98.03699608 38.06445279 98.02051173 35 98 C34.76133713 97.32746185 34.52267426 96.65492371 34.27677917 95.96200562 C31.24938506 87.43216269 28.21935637 78.90325769 25.1875 70.375 C24.82682812 69.36039577 24.82682812 69.36039577 24.45886993 68.32529449 C18.42151826 51.34336292 12.38047768 34.36399427 6.11010742 17.46630859 C5.73088135 16.44359863 5.35165527 15.42088867 4.9609375 14.3671875 C4.49373291 13.11591064 4.49373291 13.11591064 4.01708984 11.83935547 C2.61171324 7.91604057 1.31785747 3.95357242 0 0 Z " fill="#023448" transform="translate(489,761)"/>
<path d="M0 0 C2.8014039 1.9364215 5.4708256 3.78796007 7.94921875 6.125 C7.94921875 9.125 7.94921875 9.125 5.98046875 11.38671875 C5.14515625 12.18722656 4.30984375 12.98773437 3.44921875 13.8125 C2.19625 15.02486328 2.19625 15.02486328 0.91796875 16.26171875 C0.26828125 16.87660156 -0.38140625 17.49148438 -1.05078125 18.125 C-5.14080175 16.57911089 -8.42390411 14.56919981 -12.05078125 12.125 C-17.54785395 10.29264243 -24.0172537 9.9477373 -29.4765625 12.06640625 C-35.6814954 15.79404014 -40.19057931 21.01876093 -42.05078125 28.125 C-43.01822254 35.71300334 -42.00849441 42.51723914 -38.05078125 49.125 C-34.18409473 53.55061514 -29.81795281 56.75368381 -23.87109375 57.33984375 C-17.39821365 57.59190294 -12.15574789 56.21813142 -6.05078125 54.125 C-6.05078125 50.165 -6.05078125 46.205 -6.05078125 42.125 C-11.33078125 42.125 -16.61078125 42.125 -22.05078125 42.125 C-22.05078125 37.835 -22.05078125 33.545 -22.05078125 29.125 C-11.49078125 29.125 -0.93078125 29.125 9.94921875 29.125 C10.11421875 34.095625 10.27921875 39.06625 10.44921875 44.1875 C10.5584668 46.51953491 10.5584668 46.51953491 10.66992188 48.89868164 C10.82889735 58.77503273 10.82889735 58.77503273 8.34814453 62.58203125 C4.67089792 65.92163419 0.45155688 68.21076259 -4.17578125 70 C-5.63371094 70.58394531 -5.63371094 70.58394531 -7.12109375 71.1796875 C-18.06728994 74.71166014 -28.62732308 73.82577526 -39.05078125 69.125 C-47.96180345 63.98519539 -54.50656214 56.17941422 -58.16796875 46.6015625 C-60.82864682 36.12367099 -60.18201892 24.734119 -55.05078125 15.125 C-49.58285675 6.01718493 -41.41698764 -1.08626454 -31.29296875 -4.4609375 C-20.76191375 -6.40569679 -9.18073073 -5.64244654 0 0 Z " fill="#023247" transform="translate(612.05078125,887.875)"/>
<path d="M0 0 C29.98004435 0 29.98004435 0 38.12109375 6.76171875 C44.38883489 13.18582765 47.18658976 20.60314109 47.4375 29.5 C47.05942097 39.26131316 45.04857738 45.96575708 38.17578125 53.08984375 C27.36827393 62.57794263 13.90567096 61 0 61 C0 40.87 0 20.74 0 0 Z " fill="#E4E4E5" transform="translate(264,780)"/>
<path d="M0 0 C6.93 0 13.86 0 21 0 C21 32.34 21 64.68 21 98 C14.07 98 7.14 98 0 98 C0 65.66 0 33.32 0 0 Z " fill="#003145" transform="translate(451,761)"/>
<path d="M0 0 C5.64426942 3.96928673 10.88203201 9.59462225 12.125 16.5 C12.95117736 25.41965556 11.59661101 32.82906105 5.875 39.875 C0.92000278 45.04632766 -3.72263341 46.6437253 -10.8125 47 C-18.43213814 46.79045995 -22.38438521 43.9352678 -27.6875 38.75 C-32.0892869 32.21020232 -33.8708728 25.35477139 -32.875 17.5 C-31.25356396 9.78722318 -26.41081432 4.19395377 -20.25 -0.5 C-13.94421986 -2.3683793 -6.04231153 -3.082812 0 0 Z " fill="#E4E5E5" transform="translate(506.875,899.5)"/>
<path d="M0 0 C5.28 0 10.56 0 16 0 C16 19.8 16 39.6 16 60 C28.21 60 40.42 60 53 60 C53 64.62 53 69.24 53 74 C35.51 74 18.02 74 0 74 C0 49.58 0 25.16 0 0 Z " fill="#003044" transform="translate(393,885)"/>
<path d="M0 0 C6.001875 -0.0928125 6.001875 -0.0928125 12.125 -0.1875 C13.37555176 -0.21481201 14.62610352 -0.24212402 15.91455078 -0.27026367 C26.22581181 -0.34751091 26.22581181 -0.34751091 31 3 C34.89575147 7.10633263 35.74506973 9.79060437 36.375 15.25 C35.89893074 20.0106926 34.27164389 23.48601212 31 27 C27.16391862 28.89645638 24.07690623 29.2372109 19.82421875 29.1953125 C18.25933716 29.18781982 18.25933716 29.18781982 16.6628418 29.18017578 C14.69504761 29.15286377 14.69504761 29.15286377 12.6875 29.125 C8.500625 29.08375 4.31375 29.0425 0 29 C0 19.43 0 9.86 0 0 Z " fill="#E3E4E4" transform="translate(372,780)"/>
<path d="M0 0 C4.00125 -0.0825 8.0025 -0.165 12.125 -0.25 C13.37555176 -0.28641602 14.62610352 -0.32283203 15.91455078 -0.36035156 C22.26869278 -0.42382132 26.20104356 -0.32799287 31 4 C31.8971875 4.7734375 31.8971875 4.7734375 32.8125 5.5625 C35.50670087 8.82390105 35.3360651 12.69959973 35.27734375 16.71875 C34.70518037 21.42499529 32.01806641 24.06507568 28.65625 27.15234375 C23.75698809 30.32584852 17.72279711 29.41300762 12.125 29.25 C8.12375 29.1675 4.1225 29.085 0 29 C0 19.43 0 9.86 0 0 Z " fill="#E6E6E6" transform="translate(715,780)"/>
<path d="M0 0 C23.43 0 46.86 0 71 0 C71 6.27 71 12.54 71 19 C54.5 19 38 19 21 19 C21 18.67 21 18.34 21 18 C36.84 18 52.68 18 69 18 C69 12.72 69 7.44 69 2 C46.56 2 24.12 2 1 2 C1 33.02 1 64.04 1 96 C23.44 96 45.88 96 69 96 C69 96.66 69 97.32 69 98 C46.23 98 23.46 98 0 98 C0 65.66 0 33.32 0 0 Z " fill="#00192E" transform="translate(602,761)"/>
<path d="M0 0 C0.66 0 1.32 0 2 0 C2 31.68 2 63.36 2 96 C7.61 96 13.22 96 19 96 C19.33 86.43 19.66 76.86 20 67 C20.33 67 20.66 67 21 67 C21 77.23 21 87.46 21 98 C14.07 98 7.14 98 0 98 C0 65.66 0 33.32 0 0 Z " fill="#173445" transform="translate(693,761)"/>
<path d="M0 0 C23.1 0 46.2 0 70 0 C70 6.27 70 12.54 70 19 C53.5 19 37 19 20 19 C20 18.67 20 18.34 20 18 C35.84 18 51.68 18 68 18 C68 12.72 68 7.44 68 2 C45.56 2 23.12 2 0 2 C0 1.34 0 0.68 0 0 Z " fill="#052338" transform="translate(603,761)"/>
<path d="M0 0 C8.25 0 16.5 0 25 0 C25.33 0.66 25.66 1.32 26 2 C23.54724859 3.2263757 21.9494219 3.11415314 19.2109375 3.09765625 C18.36321777 3.09515869 17.51549805 3.09266113 16.64208984 3.09008789 C15.02488037 3.07643188 15.02488037 3.07643188 13.375 3.0625 C9.95125 3.041875 6.5275 3.02125 3 3 C3 10.92 3 18.84 3 27 C9.6 27 16.2 27 23 27 C23.33 27.66 23.66 28.32 24 29 C16.08 29 8.16 29 0 29 C0 19.43 0 9.86 0 0 Z " fill="#D9DEE0" transform="translate(372,780)"/>
<path d="M0 0 C5.28 0 10.56 0 16 0 C16 0.66 16 1.32 16 2 C11.38 2 6.76 2 2 2 C2 11.57 2 21.14 2 31 C1.34 31 0.68 31 0 31 C0 20.77 0 10.54 0 0 Z " fill="#EDEFEF" transform="translate(372,828)"/>
<path d="M0 0 C0.33 0 0.66 0 1 0 C1.33 3.63 1.66 7.26 2 11 C1.34 11 0.68 11 0 11 C0 24.86 0 38.72 0 53 C-0.33 53 -0.66 53 -1 53 C-2.14042163 45.81904085 -2.19107603 38.8191516 -2.1875 31.5625 C-2.1882251 30.89547058 -2.1889502 30.22844116 -2.18969727 29.54119873 C-2.18849575 19.56048498 -1.76027858 9.83869993 0 0 Z " fill="#163143" transform="translate(230,422)"/>
<path d="M0 0 C7.59 0 15.18 0 23 0 C22.34 1.65 21.68 3.3 21 5 C20.67 4.01 20.34 3.02 20 2 C13.73 2 7.46 2 1 2 C1.33 2.99 1.66 3.98 2 5 C0.92745123 7.51698632 -0.54803452 9.66805545 -2 12 C-3 9 -3 9 0 0 Z " fill="#06273C" transform="translate(563,761)"/>
<path d="M0 0 C2.60079405 3.87549152 2.26021984 7.95566126 2.1875 12.4375 C2.18685547 13.18837891 2.18621094 13.93925781 2.18554688 14.71289062 C2.15477356 18.60058598 1.94326151 22.2043157 1 26 C-1.11258842 22.83111737 -1.24900131 22.05970739 -1.23046875 18.4375 C-1.22853516 17.55835938 -1.22660156 16.67921875 -1.22460938 15.7734375 C-1.21236328 14.85820312 -1.20011719 13.94296875 -1.1875 13 C-1.18685547 12.08476562 -1.18621094 11.16953125 -1.18554688 10.2265625 C-1.14064837 3.42194512 -1.14064837 3.42194512 0 0 Z " fill="#DADFE1" transform="translate(622,244)"/>
<path d="M0 0 C3.35585467 3.0202692 4.22157001 4.55392503 6 9 C-1.92 9 -9.84 9 -18 9 C-18 8.01 -18 7.02 -18 6 C-11.07 6.33 -4.14 6.66 3 7 C2.01 5.35 1.02 3.7 0 2 C0 1.34 0 0.68 0 0 Z " fill="#032135" transform="translate(426,850)"/>
<path d="M0 0 C0.66 0.33 1.32 0.66 2 1 C-6.66666667 9.66666667 -15.33333333 18.33333333 -24 27 C-24.66 26.67 -25.32 26.34 -26 26 C-17.42 17.42 -8.84 8.84 0 0 Z " fill="#F7F6F5" transform="translate(572,212)"/>
<path d="M0 0 C7.59 0 15.18 0 23 0 C22.67 0.99 22.34 1.98 22 3 C15.73 2.67 9.46 2.34 3 2 C3.33 3.98 3.66 5.96 4 8 C1.67210485 5.16604069 0.92622107 3.70488428 0 0 Z " fill="#03243A" transform="translate(489,761)"/>
<path d="M0 0 C1.37562854 1.28965176 2.70766393 2.62689293 4 4 C4 4.66 4 5.32 4 6 C-3.92 6 -11.84 6 -20 6 C-20 5.34 -20 4.68 -20 4 C-13.07 4 -6.14 4 1 4 C0.67 2.68 0.34 1.36 0 0 Z " fill="#002036" transform="translate(770,853)"/>
<path d="M0 0 C0.33 0.66 0.66 1.32 1 2 C0.109375 4.42578125 0.109375 4.42578125 -1.25 7.3125 C-1.68828125 8.25738281 -2.1265625 9.20226562 -2.578125 10.17578125 C-3.94227492 12.88534277 -5.29760958 15.48760123 -7 18 C-7.66 18 -8.32 18 -9 18 C-9.28875 18.804375 -9.5775 19.60875 -9.875 20.4375 C-11 23 -11 23 -13 24 C-11.71075644 20.59797567 -10.2347924 17.49435446 -8.3984375 14.35546875 C-7.90859375 13.51435547 -7.41875 12.67324219 -6.9140625 11.80664062 C-6.40617188 10.94232422 -5.89828125 10.07800781 -5.375 9.1875 C-4.859375 8.30384766 -4.34375 7.42019531 -3.8125 6.50976562 C-2.54468886 4.33805211 -1.27377652 2.1682182 0 0 Z " fill="#EBEEEE" transform="translate(764,584)"/>
<path d="M0 0 C2.49118953 3.7367843 2.2065226 5.74451819 2.125 10.1875 C2.10695313 11.45980469 2.08890625 12.73210937 2.0703125 14.04296875 C2.03550781 15.50669922 2.03550781 15.50669922 2 17 C1.34 17.33 0.68 17.66 0 18 C-0.96604701 14.75684218 -1.13419024 11.81491334 -1.125 8.4375 C-1.12757813 7.48746094 -1.13015625 6.53742188 -1.1328125 5.55859375 C-1 3 -1 3 0 0 Z " fill="#D6DEE0" transform="translate(454,449)"/>
<path d="M0 0 C0.75410156 0.00322266 1.50820313 0.00644531 2.28515625 0.00976562 C3.06246094 0.01814453 3.83976562 0.02652344 4.640625 0.03515625 C5.43339844 0.03966797 6.22617187 0.04417969 7.04296875 0.04882812 C8.99222008 0.0605706 10.94143238 0.07850479 12.890625 0.09765625 C12.560625 1.08765625 12.230625 2.07765625 11.890625 3.09765625 C8.93205091 3.15144851 5.97444779 3.19122718 3.015625 3.22265625 C1.75298828 3.24779297 1.75298828 3.24779297 0.46484375 3.2734375 C-0.34082031 3.27988281 -1.14648438 3.28632813 -1.9765625 3.29296875 C-2.72019043 3.30344238 -3.46381836 3.31391602 -4.22998047 3.32470703 C-6.109375 3.09765625 -6.109375 3.09765625 -8.109375 1.09765625 C-5.33213575 0.3107718 -2.88327423 -0.02184299 0 0 Z " fill="#DAE0E0" transform="translate(414.109375,391.90234375)"/>
<path d="M0 0 C6.93 0.495 6.93 0.495 14 1 C14 4.3 14 7.6 14 11 C11.36 11 8.72 11 6 11 C9.75 9 9.75 9 12 9 C12 6.69 12 4.38 12 2 C8.37 2 4.74 2 1 2 C0.67 1.34 0.34 0.68 0 0 Z " fill="#EBEEEE" transform="translate(478,112)"/>
<path d="M0 0 C0 2.31 0 4.62 0 7 C-0.66 7 -1.32 7 -2 7 C-1.67 9.64 -1.34 12.28 -1 15 C-1.99 15 -2.98 15 -4 15 C-3.88658363 12.68690295 -3.75896193 10.37449815 -3.625 8.0625 C-3.55539062 6.77472656 -3.48578125 5.48695313 -3.4140625 4.16015625 C-3.27742187 3.11730469 -3.14078125 2.07445312 -3 1 C-1 0 -1 0 0 0 Z " fill="#D5DCDE" transform="translate(545,643)"/>
<path d="M0 0 C1.48280196 0.78483659 2.9611498 1.57809334 4.4375 2.375 C5.67306641 3.03628906 5.67306641 3.03628906 6.93359375 3.7109375 C9 5 9 5 10 7 C5.25 5.125 5.25 5.125 3 4 C3 4.66 3 5.32 3 6 C3.66 6.33 4.32 6.66 5 7 C4.67 7.66 4.34 8.32 4 9 C3.34 9 2.68 9 2 9 C1.34 6.03 0.68 3.06 0 0 Z " fill="#0A2438" transform="translate(655,210)"/>
<path d="M0 0 C2.32590854 3.63423209 2.16265833 6.77088331 2 11 C1.01 11.33 0.02 11.66 -1 12 C-1.02698189 10.37509046 -1.04638757 8.75005367 -1.0625 7.125 C-1.07410156 6.22007812 -1.08570313 5.31515625 -1.09765625 4.3828125 C-1 2 -1 2 0 0 Z " fill="#D2DADC" transform="translate(483,658)"/>
<path d="M0 0 C3.21043882 1.38188453 5.04936365 2.92421903 7.25 5.625 C8.03117187 6.57246094 8.03117187 6.57246094 8.828125 7.5390625 C9.40820312 8.26222656 9.40820312 8.26222656 10 9 C7 9 7 9 5.17578125 7.5390625 C4.56089844 6.90742187 3.94601562 6.27578125 3.3125 5.625 C2.68988281 4.99851562 2.06726563 4.37203125 1.42578125 3.7265625 C0 2 0 2 0 0 Z " fill="#CCD6D9" transform="translate(341,615)"/>
<path d="M0 0 C1.00007341 3.1113395 0.87515553 4.88833588 0 8 C0 9.32 0 10.64 0 12 C-0.99 12.33 -1.98 12.66 -3 13 C-2.88490339 11.58249437 -2.75746342 10.16598831 -2.625 8.75 C-2.55539062 7.96109375 -2.48578125 7.1721875 -2.4140625 6.359375 C-1.98492887 3.914123 -1.21399362 2.15163097 0 0 Z " fill="#0E2E41" transform="translate(381,217)"/>
<path d="M0 0 C-0.33 0.99 -0.66 1.98 -1 3 C-3.64 3.33 -6.28 3.66 -9 4 C-9 3.01 -9 2.02 -9 1 C-5.92677456 0.08941469 -3.19902639 -0.08886184 0 0 Z " fill="#D6DCDD" transform="translate(498,148)"/>
<path d="M0 0 C0.66 0.33 1.32 0.66 2 1 C0.68 4.96 -0.64 8.92 -2 13 C-2.95904856 9.16380575 -2.91892116 7.67568464 -2 4 C-2.66 3.67 -3.32 3.34 -4 3 C-2.68 2.01 -1.36 1.02 0 0 Z " fill="#081E31" transform="translate(368,210)"/>
<path d="M0 0 C0 0.99 0 1.98 0 3 C-3.50871784 4.91384609 -4.81367786 5.04276246 -8.8125 4.125 C-9.864375 3.75375 -10.91625 3.3825 -12 3 C-12 2.67 -12 2.34 -12 2 C-8.04 1.34 -4.08 0.68 0 0 Z " fill="#1F4255" transform="translate(505,944)"/>
<path d="M0 0 C0.99 0 1.98 0 3 0 C3 2.97 3 5.94 3 9 C2.01 9 1.02 9 0 9 C0 6.03 0 3.06 0 0 Z " fill="#D7DEDF" transform="translate(747,790)"/>
<path d="M0 0 C0.33 0 0.66 0 1 0 C1.36923077 5.41538462 1.36923077 5.41538462 -0.5 8.375 C-0.995 8.91125 -1.49 9.4475 -2 10 C-2.6875 8.375 -2.6875 8.375 -3 6 C-1.5625 2.75 -1.5625 2.75 0 0 Z " fill="#D9DFE1" transform="translate(300,347)"/>
<path d="M0 0 C1.85776765 3.13498292 2.20140476 5.37471432 2 9 C1.01 8.67 0.02 8.34 -1 8 C-0.67 5.36 -0.34 2.72 0 0 Z " fill="#D8E0E1" transform="translate(309,799)"/>
<path d="M0 0 C0.33 0.99 0.66 1.98 1 3 C-1.64 4.98 -4.28 6.96 -7 9 C-5.04783565 5.09567131 -3.12613393 2.96160056 0 0 Z " fill="#021D31" transform="translate(415,161)"/>
<path d="M0 0 C0.99 0.99 1.98 1.98 3 3 C2.67 3.66 2.34 4.32 2 5 C-0.0625 5.625 -0.0625 5.625 -2 6 C-1.125 1.125 -1.125 1.125 0 0 Z " fill="#EEEEEE" transform="translate(573,908)"/>
<path d="M0 0 C0.66 0.99 1.32 1.98 2 3 C-0.33333333 5.33333333 -2.66666667 7.66666667 -5 10 C-4.49701212 5.59885603 -2.91227269 3.28804981 0 0 Z " fill="#062134" transform="translate(481,433)"/>
<path d="M0 0 C0 0.99 0 1.98 0 3 C-2.97 3 -5.94 3 -9 3 C-5.92807025 0.26939578 -4.09590633 -0.34132553 0 0 Z " fill="#104154" transform="translate(745,761)"/>
<path d="M0 0 C0.33 0 0.66 0 1 0 C1.33 2.97 1.66 5.94 2 9 C1.01 9 0.02 9 -1 9 C-0.67 6.03 -0.34 3.06 0 0 Z " fill="#0A3F52" transform="translate(791,492)"/>
<path d="M0 0 C0.78375 0.04125 1.5675 0.0825 2.375 0.125 C2.375 1.115 2.375 2.105 2.375 3.125 C0.065 2.795 -2.245 2.465 -4.625 2.125 C-2.625 0.125 -2.625 0.125 0 0 Z " fill="#D5DDDF" transform="translate(713.625,452.875)"/>
<path d="M0 0 C0.33 0 0.66 0 1 0 C1.33 3.63 1.66 7.26 2 11 C1.01 10.67 0.02 10.34 -1 10 C-0.67 6.7 -0.34 3.4 0 0 Z " fill="#022035" transform="translate(230,422)"/>
<path d="M0 0 C0.33 0.99 0.66 1.98 1 3 C-1.97 5.475 -1.97 5.475 -5 8 C-5.66 7.67 -6.32 7.34 -7 7 C-4.69 4.69 -2.38 2.38 0 0 Z " fill="#F3F4F3" transform="translate(341,290)"/>
<path d="M0 0 C-1 2 -1 2 -2.875 2.8125 C-5 3 -5 3 -6.75 1.5625 C-7.1625 1.046875 -7.575 0.53125 -8 0 C-4.94736336 -0.98120464 -3.05263664 -0.98120464 0 0 Z " fill="#173C4E" transform="translate(484,125)"/>
</svg>
